<svg id="visual" viewBox="0 0 900 600" width="900" height="600" xmlns="http://www.w3.org/2000/svg" xmlns:xlink="http://www.w3.org/1999/xlink" version="1.1"><g stroke-width="1" stroke-linejoin="bevel"><path d="M481.9 344L531.7 419L499.9 335Z" fill="#8ea9d1" stroke="#8ea9d1"></path><path d="M531.7 419L580.7 314L499.9 335Z" fill="#7899c2" stroke="#7899c2"></path><path d="M481.9 344L478.9 474L531.7 419Z" fill="#6c92ba" stroke="#6c92ba"></path><path d="M530.9 503L581.7 458L531.7 419Z" fill="#99b1d8" stroke="#99b1d8"></path><path d="M531.7 419L640.5 364L580.7 314Z" fill="#aec1e7" stroke="#aec1e7"></path><path d="M481.9 344L413.1 452L478.9 474Z" fill="#99b1d8" stroke="#99b1d8"></path><path d="M568.7 538L530.9 503L532.9 600Z" fill="#6c92ba" stroke="#6c92ba"></path><path d="M478.9 474L530.9 503L531.7 419Z" fill="#487ca4" stroke="#487ca4"></path><path d="M581.7 458L640.5 364L531.7 419Z" fill="#a4b9e0" stroke="#a4b9e0"></path><path d="M370.3 258L383.1 338L481.9 344Z" fill="#618bb3" stroke="#618bb3"></path><path d="M481.9 344L367.1 401L413.1 452Z" fill="#b9c9ef" stroke="#b9c9ef"></path><path d="M468.9 214L481.9 344L499.9 335Z" fill="#618bb3" stroke="#618bb3"></path><path d="M621.5 282L591.7 261L580.7 314Z" fill="#b9c9ef" stroke="#b9c9ef"></path><path d="M580.7 314L591.7 261L499.9 335Z" fill="#aec1e7" stroke="#aec1e7"></path><path d="M383.1 338L367.1 401L481.9 344Z" fill="#a4b9e0" stroke="#a4b9e0"></path><path d="M640.5 364L621.5 282L580.7 314Z" fill="#487ca4" stroke="#487ca4"></path><path d="M530.9 503L608.5 495L581.7 458Z" fill="#7899c2" stroke="#7899c2"></path><path d="M581.7 458L717.4 455L640.5 364Z" fill="#83a1c9" stroke="#83a1c9"></path><path d="M713.4 279L635.5 267L621.5 282Z" fill="#99b1d8" stroke="#99b1d8"></path><path d="M621.5 282L635.5 267L591.7 261Z" fill="#99b1d8" stroke="#99b1d8"></path><path d="M434.1 550L530.9 503L478.9 474Z" fill="#487ca4" stroke="#487ca4"></path><path d="M530.9 503L568.7 538L608.5 495Z" fill="#b9c9ef" stroke="#b9c9ef"></path><path d="M443.9 165L468.9 214L533.7 131Z" fill="#a4b9e0" stroke="#a4b9e0"></path><path d="M591.7 261L468.9 214L499.9 335Z" fill="#487ca4" stroke="#487ca4"></path><path d="M468.9 214L370.3 258L481.9 344Z" fill="#b9c9ef" stroke="#b9c9ef"></path><path d="M383.1 338L287.3 382L367.1 401Z" fill="#a4b9e0" stroke="#a4b9e0"></path><path d="M323.3 489L434.1 550L413.1 452Z" fill="#7899c2" stroke="#7899c2"></path><path d="M413.1 452L434.1 550L478.9 474Z" fill="#aec1e7" stroke="#aec1e7"></path><path d="M468.9 214L370.1 222L370.3 258Z" fill="#83a1c9" stroke="#83a1c9"></path><path d="M287.3 382L323.3 489L367.1 401Z" fill="#aec1e7" stroke="#aec1e7"></path><path d="M367.1 401L323.3 489L413.1 452Z" fill="#99b1d8" stroke="#99b1d8"></path><path d="M287.3 382L383.1 338L249.5 330Z" fill="#618bb3" stroke="#618bb3"></path><path d="M700.5 553L717.4 455L608.5 495Z" fill="#6c92ba" stroke="#6c92ba"></path><path d="M608.5 495L717.4 455L581.7 458Z" fill="#618bb3" stroke="#618bb3"></path><path d="M640.5 364L713.4 279L621.5 282Z" fill="#99b1d8" stroke="#99b1d8"></path><path d="M434.1 550L532.9 600L530.9 503Z" fill="#7899c2" stroke="#7899c2"></path><path d="M568.7 538L628.5 600L608.5 495Z" fill="#7899c2" stroke="#7899c2"></path><path d="M249.5 330L383.1 338L370.3 258Z" fill="#8ea9d1" stroke="#8ea9d1"></path><path d="M533.7 131L468.9 214L591.7 261Z" fill="#aec1e7" stroke="#aec1e7"></path><path d="M468.9 214L443.9 165L370.1 222Z" fill="#b9c9ef" stroke="#b9c9ef"></path><path d="M717.4 455L734.4 364L640.5 364Z" fill="#7899c2" stroke="#7899c2"></path><path d="M532.9 600L557.7 600L568.7 538Z" fill="#99b1d8" stroke="#99b1d8"></path><path d="M734.4 364L713.4 279L640.5 364Z" fill="#8ea9d1" stroke="#8ea9d1"></path><path d="M691.4 188L533.7 131L591.7 261Z" fill="#83a1c9" stroke="#83a1c9"></path><path d="M443.9 165L358.3 197L370.1 222Z" fill="#6c92ba" stroke="#6c92ba"></path><path d="M370.1 222L320.3 226L370.3 258Z" fill="#618bb3" stroke="#618bb3"></path><path d="M358.3 197L320.3 226L370.1 222Z" fill="#99b1d8" stroke="#99b1d8"></path><path d="M691.4 188L591.7 261L635.5 267Z" fill="#83a1c9" stroke="#83a1c9"></path><path d="M443.9 165L402.1 115L358.3 197Z" fill="#aec1e7" stroke="#aec1e7"></path><path d="M323.3 489L390.1 600L434.1 550Z" fill="#7899c2" stroke="#7899c2"></path><path d="M434.1 550L390.1 600L532.9 600Z" fill="#83a1c9" stroke="#83a1c9"></path><path d="M261.5 407L303.3 517L323.3 489Z" fill="#99b1d8" stroke="#99b1d8"></path><path d="M557.7 600L628.5 600L568.7 538Z" fill="#487ca4" stroke="#487ca4"></path><path d="M237.5 337L261.5 407L287.3 382Z" fill="#5583ab" stroke="#5583ab"></path><path d="M287.3 382L261.5 407L323.3 489Z" fill="#618bb3" stroke="#618bb3"></path><path d="M303.3 517L390.1 600L323.3 489Z" fill="#aec1e7" stroke="#aec1e7"></path><path d="M628.5 600L700.5 553L608.5 495Z" fill="#6c92ba" stroke="#6c92ba"></path><path d="M816.2 454L782.2 336L734.4 364Z" fill="#b9c9ef" stroke="#b9c9ef"></path><path d="M733.4 231L691.4 188L713.4 279Z" fill="#b9c9ef" stroke="#b9c9ef"></path><path d="M713.4 279L691.4 188L635.5 267Z" fill="#487ca4" stroke="#487ca4"></path><path d="M320.3 226L249.5 330L370.3 258Z" fill="#5583ab" stroke="#5583ab"></path><path d="M782.2 336L733.4 231L713.4 279Z" fill="#6c92ba" stroke="#6c92ba"></path><path d="M816.2 454L734.4 364L717.4 455Z" fill="#aec1e7" stroke="#aec1e7"></path><path d="M734.4 364L782.2 336L713.4 279Z" fill="#487ca4" stroke="#487ca4"></path><path d="M224.5 236L237.5 337L249.5 330Z" fill="#83a1c9" stroke="#83a1c9"></path><path d="M249.5 330L237.5 337L287.3 382Z" fill="#6c92ba" stroke="#6c92ba"></path><path d="M700.5 553L757.4 513L717.4 455Z" fill="#b9c9ef" stroke="#b9c9ef"></path><path d="M358.3 197L232.5 153L320.3 226Z" fill="#aec1e7" stroke="#aec1e7"></path><path d="M320.3 226L224.5 236L249.5 330Z" fill="#8ea9d1" stroke="#8ea9d1"></path><path d="M448.9 65L402.1 115L443.9 165Z" fill="#8ea9d1" stroke="#8ea9d1"></path><path d="M212.5 600L321.3 600L303.3 517Z" fill="#aec1e7" stroke="#aec1e7"></path><path d="M303.3 517L321.3 600L390.1 600Z" fill="#b9c9ef" stroke="#b9c9ef"></path><path d="M207.5 534L303.3 517L261.5 407Z" fill="#7899c2" stroke="#7899c2"></path><path d="M448.9 65L373.1 104L402.1 115Z" fill="#a4b9e0" stroke="#a4b9e0"></path><path d="M402.1 115L373.1 104L358.3 197Z" fill="#83a1c9" stroke="#83a1c9"></path><path d="M757.4 513L816.2 454L717.4 455Z" fill="#83a1c9" stroke="#83a1c9"></path><path d="M776.2 600L797.2 511L757.4 513Z" fill="#a4b9e0" stroke="#a4b9e0"></path><path d="M757.4 513L797.2 511L816.2 454Z" fill="#8ea9d1" stroke="#8ea9d1"></path><path d="M771.4 600L757.4 513L700.5 553Z" fill="#487ca4" stroke="#487ca4"></path><path d="M232.5 153L224.5 236L320.3 226Z" fill="#83a1c9" stroke="#83a1c9"></path><path d="M570.7 44L448.9 65L533.7 131Z" fill="#6c92ba" stroke="#6c92ba"></path><path d="M533.7 131L448.9 65L443.9 165Z" fill="#83a1c9" stroke="#83a1c9"></path><path d="M816.2 454L837.2 337L782.2 336Z" fill="#487ca4" stroke="#487ca4"></path><path d="M782.2 336L855.2 223L733.4 231Z" fill="#8ea9d1" stroke="#8ea9d1"></path><path d="M828.2 118L699.5 106L691.4 188Z" fill="#83a1c9" stroke="#83a1c9"></path><path d="M828.2 118L691.4 188L733.4 231Z" fill="#83a1c9" stroke="#83a1c9"></path><path d="M691.4 188L699.5 106L533.7 131Z" fill="#7899c2" stroke="#7899c2"></path><path d="M828.2 118L698.5 99L699.5 106Z" fill="#a4b9e0" stroke="#a4b9e0"></path><path d="M688.4 86L570.7 44L533.7 131Z" fill="#a4b9e0" stroke="#a4b9e0"></path><path d="M688.4 86L533.7 131L699.5 106Z" fill="#99b1d8" stroke="#99b1d8"></path><path d="M154.6 392L261.5 407L237.5 337Z" fill="#5583ab" stroke="#5583ab"></path><path d="M143.6 450L207.5 534L261.5 407Z" fill="#b9c9ef" stroke="#b9c9ef"></path><path d="M900 445L837.2 337L816.2 454Z" fill="#8ea9d1" stroke="#8ea9d1"></path><path d="M628.5 600L771.4 600L700.5 553Z" fill="#99b1d8" stroke="#99b1d8"></path><path d="M698.5 99L688.4 86L699.5 106Z" fill="#487ca4" stroke="#487ca4"></path><path d="M771.4 600L776.2 600L757.4 513Z" fill="#83a1c9" stroke="#83a1c9"></path><path d="M118.6 270L154.6 392L237.5 337Z" fill="#618bb3" stroke="#618bb3"></path><path d="M288.3 73L358.3 197L373.1 104Z" fill="#aec1e7" stroke="#aec1e7"></path><path d="M288.3 73L232.5 153L358.3 197Z" fill="#83a1c9" stroke="#83a1c9"></path><path d="M224.5 236L118.6 270L237.5 337Z" fill="#5583ab" stroke="#5583ab"></path><path d="M232.5 153L191.6 197L224.5 236Z" fill="#618bb3" stroke="#618bb3"></path><path d="M207.5 534L212.5 600L303.3 517Z" fill="#a4b9e0" stroke="#a4b9e0"></path><path d="M162.6 600L212.5 600L207.5 534Z" fill="#7899c2" stroke="#7899c2"></path><path d="M154.6 392L143.6 450L261.5 407Z" fill="#6c92ba" stroke="#6c92ba"></path><path d="M837.2 337L855.2 223L782.2 336Z" fill="#487ca4" stroke="#487ca4"></path><path d="M698.5 99L731.4 0L688.4 86Z" fill="#aec1e7" stroke="#aec1e7"></path><path d="M362.3 0L288.3 73L373.1 104Z" fill="#83a1c9" stroke="#83a1c9"></path><path d="M94.8 142L163.6 204L191.6 197Z" fill="#487ca4" stroke="#487ca4"></path><path d="M362.3 0L373.1 104L448.9 65Z" fill="#b9c9ef" stroke="#b9c9ef"></path><path d="M595.7 0L486.9 0L570.7 44Z" fill="#99b1d8" stroke="#99b1d8"></path><path d="M570.7 44L486.9 0L448.9 65Z" fill="#6c92ba" stroke="#6c92ba"></path><path d="M486.9 0L445.1 0L448.9 65Z" fill="#487ca4" stroke="#487ca4"></path><path d="M632.5 0L570.7 44L688.4 86Z" fill="#8ea9d1" stroke="#8ea9d1"></path><path d="M632.5 0L595.7 0L570.7 44Z" fill="#618bb3" stroke="#618bb3"></path><path d="M94.8 142L191.6 197L232.5 153Z" fill="#a4b9e0" stroke="#a4b9e0"></path><path d="M191.6 197L163.6 204L224.5 236Z" fill="#487ca4" stroke="#487ca4"></path><path d="M154.6 392L112.8 418L143.6 450Z" fill="#b9c9ef" stroke="#b9c9ef"></path><path d="M900 445L900 346L837.2 337Z" fill="#a4b9e0" stroke="#a4b9e0"></path><path d="M837.2 337L900 281L855.2 223Z" fill="#487ca4" stroke="#487ca4"></path><path d="M900 445L816.2 454L900 495Z" fill="#7899c2" stroke="#7899c2"></path><path d="M143.6 450L152.6 544L207.5 534Z" fill="#83a1c9" stroke="#83a1c9"></path><path d="M900 495L816.2 454L797.2 511Z" fill="#6c92ba" stroke="#6c92ba"></path><path d="M731.4 0L632.5 0L688.4 86Z" fill="#b9c9ef" stroke="#b9c9ef"></path><path d="M66.8 345L112.8 418L154.6 392Z" fill="#99b1d8" stroke="#99b1d8"></path><path d="M143.6 450L51.8 524L152.6 544Z" fill="#7899c2" stroke="#7899c2"></path><path d="M900 346L900 281L837.2 337Z" fill="#8ea9d1" stroke="#8ea9d1"></path><path d="M900 281L900 271L855.2 223Z" fill="#b9c9ef" stroke="#b9c9ef"></path><path d="M900 600L900 495L797.2 511Z" fill="#8ea9d1" stroke="#8ea9d1"></path><path d="M163.6 204L118.6 270L224.5 236Z" fill="#a4b9e0" stroke="#a4b9e0"></path><path d="M445.1 0L362.3 0L448.9 65Z" fill="#5583ab" stroke="#5583ab"></path><path d="M900 143L828.2 118L855.2 223Z" fill="#6c92ba" stroke="#6c92ba"></path><path d="M855.2 223L828.2 118L733.4 231Z" fill="#a4b9e0" stroke="#a4b9e0"></path><path d="M152.6 544L162.6 600L207.5 534Z" fill="#7899c2" stroke="#7899c2"></path><path d="M61.8 600L162.6 600L152.6 544Z" fill="#5583ab" stroke="#5583ab"></path><path d="M232.5 0L248.5 59L288.3 73Z" fill="#aec1e7" stroke="#aec1e7"></path><path d="M288.3 73L248.5 59L232.5 153Z" fill="#5583ab" stroke="#5583ab"></path><path d="M35.8 208L109.8 276L118.6 270Z" fill="#b9c9ef" stroke="#b9c9ef"></path><path d="M35.8 208L118.6 270L163.6 204Z" fill="#b9c9ef" stroke="#b9c9ef"></path><path d="M118.6 270L109.8 276L154.6 392Z" fill="#aec1e7" stroke="#aec1e7"></path><path d="M828.2 118L731.4 0L698.5 99Z" fill="#99b1d8" stroke="#99b1d8"></path><path d="M109.8 276L66.8 345L154.6 392Z" fill="#83a1c9" stroke="#83a1c9"></path><path d="M112.8 418L51.8 524L143.6 450Z" fill="#b9c9ef" stroke="#b9c9ef"></path><path d="M776.2 600L900 600L797.2 511Z" fill="#a4b9e0" stroke="#a4b9e0"></path><path d="M900 271L900 143L855.2 223Z" fill="#7899c2" stroke="#7899c2"></path><path d="M828.2 118L819.2 0L731.4 0Z" fill="#99b1d8" stroke="#99b1d8"></path><path d="M362.3 0L232.5 0L288.3 73Z" fill="#b9c9ef" stroke="#b9c9ef"></path><path d="M127.6 42L94.8 142L232.5 153Z" fill="#5583ab" stroke="#5583ab"></path><path d="M109.8 276L0 289L66.8 345Z" fill="#487ca4" stroke="#487ca4"></path><path d="M900 94L864.2 62L828.2 118Z" fill="#83a1c9" stroke="#83a1c9"></path><path d="M127.6 42L232.5 153L248.5 59Z" fill="#487ca4" stroke="#487ca4"></path><path d="M0 426L51.8 524L112.8 418Z" fill="#99b1d8" stroke="#99b1d8"></path><path d="M900 143L900 94L828.2 118Z" fill="#487ca4" stroke="#487ca4"></path><path d="M864.2 62L819.2 0L828.2 118Z" fill="#99b1d8" stroke="#99b1d8"></path><path d="M900 0L819.2 0L864.2 62Z" fill="#5583ab" stroke="#5583ab"></path><path d="M51.8 524L61.8 600L152.6 544Z" fill="#99b1d8" stroke="#99b1d8"></path><path d="M94.8 142L35.8 208L163.6 204Z" fill="#aec1e7" stroke="#aec1e7"></path><path d="M66.8 345L0 426L112.8 418Z" fill="#487ca4" stroke="#487ca4"></path><path d="M153.6 0L127.6 42L248.5 59Z" fill="#8ea9d1" stroke="#8ea9d1"></path><path d="M0 117L0 206L35.8 208Z" fill="#8ea9d1" stroke="#8ea9d1"></path><path d="M0 289L0 363L66.8 345Z" fill="#5583ab" stroke="#5583ab"></path><path d="M51.8 524L0 547L61.8 600Z" fill="#6c92ba" stroke="#6c92ba"></path><path d="M0 363L0 426L66.8 345Z" fill="#618bb3" stroke="#618bb3"></path><path d="M35.8 208L0 289L109.8 276Z" fill="#8ea9d1" stroke="#8ea9d1"></path><path d="M232.5 0L153.6 0L248.5 59Z" fill="#6c92ba" stroke="#6c92ba"></path><path d="M104.8 0L85.8 58L127.6 42Z" fill="#b9c9ef" stroke="#b9c9ef"></path><path d="M127.6 42L85.8 58L94.8 142Z" fill="#aec1e7" stroke="#aec1e7"></path><path d="M35.8 208L0 206L0 289Z" fill="#99b1d8" stroke="#99b1d8"></path><path d="M0 426L0 547L51.8 524Z" fill="#8ea9d1" stroke="#8ea9d1"></path><path d="M0 117L35.8 208L94.8 142Z" fill="#487ca4" stroke="#487ca4"></path><path d="M900 94L900 0L864.2 62Z" fill="#487ca4" stroke="#487ca4"></path><path d="M153.6 0L104.8 0L127.6 42Z" fill="#8ea9d1" stroke="#8ea9d1"></path><path d="M85.8 58L0 117L94.8 142Z" fill="#618bb3" stroke="#618bb3"></path><path d="M0 547L0 600L61.8 600Z" fill="#6c92ba" stroke="#6c92ba"></path><path d="M0 86L0 117L85.8 58Z" fill="#5583ab" stroke="#5583ab"></path><path d="M0 0L0 86L85.8 58Z" fill="#8ea9d1" stroke="#8ea9d1"></path><path d="M104.8 0L0 0L85.8 58Z" fill="#8ea9d1" stroke="#8ea9d1"></path></g></svg>